<svg width="31" height="31" viewBox="0 0 31 31" fill="none" xmlns="http://www.w3.org/2000/svg">
<path d="M15.5 18.0833C15.7555 18.0833 16.0052 18.0076 16.2176 17.8656C16.43 17.7237 16.5956 17.522 16.6933 17.2859C16.7911 17.0499 16.8167 16.7902 16.7668 16.5397C16.717 16.2891 16.594 16.0589 16.4133 15.8783C16.2327 15.6977 16.0025 15.5746 15.752 15.5248C15.5014 15.475 15.2417 15.5005 15.0057 15.5983C14.7697 15.6961 14.5679 15.8616 14.426 16.074C14.2841 16.2864 14.2083 16.5362 14.2083 16.7916C14.2083 17.1342 14.3444 17.4628 14.5866 17.705C14.8289 17.9472 15.1574 18.0833 15.5 18.0833ZM21.9583 18.0833C22.2138 18.0833 22.4635 18.0076 22.6759 17.8656C22.8884 17.7237 23.0539 17.522 23.1517 17.2859C23.2494 17.0499 23.275 16.7902 23.2252 16.5397C23.1753 16.2891 23.0523 16.0589 22.8717 15.8783C22.691 15.6977 22.4609 15.5746 22.2103 15.5248C21.9598 15.475 21.7001 15.5005 21.464 15.5983C21.228 15.6961 21.0263 15.8616 20.8843 16.074C20.7424 16.2864 20.6667 16.5362 20.6667 16.7916C20.6667 17.1342 20.8027 17.4628 21.045 17.705C21.2872 17.9472 21.6158 18.0833 21.9583 18.0833ZM15.5 23.25C15.7555 23.25 16.0052 23.1742 16.2176 23.0323C16.43 22.8904 16.5956 22.6886 16.6933 22.4526C16.7911 22.2166 16.8167 21.9569 16.7668 21.7063C16.717 21.4558 16.594 21.2256 16.4133 21.045C16.2327 20.8643 16.0025 20.7413 15.752 20.6915C15.5014 20.6416 15.2417 20.6672 15.0057 20.765C14.7697 20.8627 14.5679 21.0283 14.426 21.2407C14.2841 21.4531 14.2083 21.7028 14.2083 21.9583C14.2083 22.3009 14.3444 22.6294 14.5866 22.8717C14.8289 23.1139 15.1574 23.25 15.5 23.25ZM21.9583 23.25C22.2138 23.25 22.4635 23.1742 22.6759 23.0323C22.8884 22.8904 23.0539 22.6886 23.1517 22.4526C23.2494 22.2166 23.275 21.9569 23.2252 21.7063C23.1753 21.4558 23.0523 21.2256 22.8717 21.045C22.691 20.8643 22.4609 20.7413 22.2103 20.6915C21.9598 20.6416 21.7001 20.6672 21.464 20.765C21.228 20.8627 21.0263 21.0283 20.8843 21.2407C20.7424 21.4531 20.6667 21.7028 20.6667 21.9583C20.6667 22.3009 20.8027 22.6294 21.045 22.8717C21.2872 23.1139 21.6158 23.25 21.9583 23.25ZM9.04166 18.0833C9.29713 18.0833 9.54686 18.0076 9.75927 17.8656C9.97169 17.7237 10.1372 17.522 10.235 17.2859C10.3328 17.0499 10.3583 16.7902 10.3085 16.5397C10.2587 16.2891 10.1357 16.0589 9.95501 15.8783C9.77436 15.6977 9.54421 15.5746 9.29365 15.5248C9.04309 15.475 8.78338 15.5005 8.54736 15.5983C8.31134 15.6961 8.10961 15.8616 7.96768 16.074C7.82575 16.2864 7.74999 16.5362 7.74999 16.7916C7.74999 17.1342 7.88608 17.4628 8.12832 17.705C8.37055 17.9472 8.69909 18.0833 9.04166 18.0833ZM24.5417 5.16665H23.25V3.87498C23.25 3.53241 23.1139 3.20387 22.8717 2.96163C22.6294 2.7194 22.3009 2.58331 21.9583 2.58331C21.6158 2.58331 21.2872 2.7194 21.045 2.96163C20.8027 3.20387 20.6667 3.53241 20.6667 3.87498V5.16665H10.3333V3.87498C10.3333 3.53241 10.1972 3.20387 9.95501 2.96163C9.71277 2.7194 9.38423 2.58331 9.04166 2.58331C8.69909 2.58331 8.37055 2.7194 8.12832 2.96163C7.88608 3.20387 7.74999 3.53241 7.74999 3.87498V5.16665H6.45833C5.43061 5.16665 4.44499 5.5749 3.71829 6.30161C2.99159 7.02831 2.58333 8.01393 2.58333 9.04165V24.5416C2.58333 25.5694 2.99159 26.555 3.71829 27.2817C4.44499 28.0084 5.43061 28.4166 6.45833 28.4166H24.5417C25.5694 28.4166 26.555 28.0084 27.2817 27.2817C28.0084 26.555 28.4167 25.5694 28.4167 24.5416V9.04165C28.4167 8.01393 28.0084 7.02831 27.2817 6.30161C26.555 5.5749 25.5694 5.16665 24.5417 5.16665ZM25.8333 24.5416C25.8333 24.8842 25.6972 25.2128 25.455 25.455C25.2128 25.6972 24.8842 25.8333 24.5417 25.8333H6.45833C6.11576 25.8333 5.78722 25.6972 5.54498 25.455C5.30275 25.2128 5.16666 24.8842 5.16666 24.5416V12.9166H25.8333V24.5416ZM25.8333 10.3333H5.16666V9.04165C5.16666 8.69907 5.30275 8.37053 5.54498 8.1283C5.78722 7.88607 6.11576 7.74998 6.45833 7.74998H24.5417C24.8842 7.74998 25.2128 7.88607 25.455 8.1283C25.6972 8.37053 25.8333 8.69907 25.8333 9.04165V10.3333ZM9.04166 23.25C9.29713 23.25 9.54686 23.1742 9.75927 23.0323C9.97169 22.8904 10.1372 22.6886 10.235 22.4526C10.3328 22.2166 10.3583 21.9569 10.3085 21.7063C10.2587 21.4558 10.1357 21.2256 9.95501 21.045C9.77436 20.8643 9.54421 20.7413 9.29365 20.6915C9.04309 20.6416 8.78338 20.6672 8.54736 20.765C8.31134 20.8627 8.10961 21.0283 7.96768 21.2407C7.82575 21.4531 7.74999 21.7028 7.74999 21.9583C7.74999 22.3009 7.88608 22.6294 8.12832 22.8717C8.37055 23.1139 8.69909 23.25 9.04166 23.25Z" fill="black"/>
</svg>
