<svg width="25" height="25" viewBox="0 0 25 25" fill="none" xmlns="http://www.w3.org/2000/svg">
<g clip-path="url(#clip0_22_73)">
<path d="M24.7153 23.3408L18.6139 17.2399C20.1304 15.4162 21.0441 13.0744 21.0441 10.5228C21.0441 4.72073 16.324 0.000427249 10.5224 0.000427249C4.7203 0.000297652 0 4.7206 0 10.5227C0 16.3243 4.7203 21.0444 10.5224 21.0444C13.0739 21.0444 15.4157 20.1308 17.2392 18.6144L23.3408 24.7154C23.5305 24.9052 23.7793 25 24.028 25C24.2767 25 24.5255 24.9052 24.7154 24.7153C25.095 24.3357 25.095 23.7204 24.7153 23.3408ZM1.94395 10.5227C1.94395 5.7925 5.7922 1.94425 10.5224 1.94425C15.2521 1.94425 19.1001 5.7925 19.1001 10.5227C19.1001 15.2524 15.2522 19.1004 10.5224 19.1004C5.7922 19.1004 1.94395 15.2524 1.94395 10.5227Z" fill="black"/>
<path d="M10.5214 5.44165C8.47511 5.44165 6.81018 7.10632 6.81018 9.15253C6.81018 12.2587 9.71069 15.1946 9.83419 15.3181C10.0239 15.5078 10.2726 15.6027 10.5214 15.6027C10.7701 15.6027 11.0188 15.5078 11.2086 15.3182C11.3321 15.1947 14.234 12.2588 14.234 9.15253C14.2339 7.10645 12.5684 5.44165 10.5214 5.44165ZM10.5191 13.1537C9.7357 12.1581 8.75413 10.5794 8.75413 9.15266C8.75413 8.17835 9.54688 7.38573 10.5214 7.38573C11.4965 7.38573 12.2899 8.17835 12.2899 9.15266C12.2899 10.6571 11.2459 12.2364 10.5191 13.1537Z" fill="black"/>
</g>
<defs>
<clipPath id="clip0_22_73">
<rect width="25" height="25" fill="white"/>
</clipPath>
</defs>
</svg>
