<svg width="27" height="27" viewBox="0 0 27 27" fill="none" xmlns="http://www.w3.org/2000/svg">
<path opacity="0.4" d="M6.75 7.03125V9.28125" stroke="#292D32" stroke-width="1.6875" stroke-linecap="round" stroke-linejoin="round"/>
<path d="M24.75 13.5V10.125C24.75 4.5 22.5 2.25 16.875 2.25H10.125C4.5 2.25 2.25 4.5 2.25 10.125V16.875C2.25 22.5 4.5 24.75 10.125 24.75H13.5" stroke="#292D32" stroke-width="1.6875" stroke-linecap="round" stroke-linejoin="round"/>
<path opacity="0.4" d="M11.25 7.03125V9.28125" stroke="#292D32" stroke-width="1.6875" stroke-linecap="round" stroke-linejoin="round"/>
<path opacity="0.4" d="M6.75 18V20.25" stroke="#292D32" stroke-width="1.6875" stroke-linecap="round" stroke-linejoin="round"/>
<path opacity="0.4" d="M11.25 18V20.25" stroke="#292D32" stroke-width="1.6875" stroke-linecap="round" stroke-linejoin="round"/>
<path opacity="0.4" d="M15.75 8.15625H20.25" stroke="#292D32" stroke-width="1.6875" stroke-linecap="round" stroke-linejoin="round"/>
<path d="M2.25 13.5H24.75" stroke="#292D32" stroke-width="1.6875" stroke-linecap="round" stroke-linejoin="round"/>
<path d="M24.2554 22.8712C23.6254 23.9625 22.4442 24.6938 21.0942 24.6938C19.0804 24.6938 17.8429 22.6687 17.8429 22.6687M17.9217 19.2262C18.5517 18.1238 19.7329 17.3925 21.0942 17.3925C23.5354 17.3925 24.7504 19.4175 24.7504 19.4175M24.7504 17.1562V19.4062H22.5004M20.0929 22.6575H17.8429V24.75" stroke="#292D32" stroke-width="1.6875" stroke-linecap="round" stroke-linejoin="round"/>
</svg>
