<svg width="19" height="19" viewBox="0 0 19 19" fill="none" xmlns="http://www.w3.org/2000/svg">
<g clip-path="url(#clip0_22_91)">
<path d="M18.6521 3.70544L15.2932 0.346592C14.8295 -0.117126 14.0781 -0.117126 13.6138 0.346889C13.6138 0.346889 0.359516 13.6012 0.178719 13.782C-0.00178057 13.9622 6.67268e-07 14.2487 6.67268e-07 14.2487L0.000297542 18.4046C0.000297542 18.7327 0.266297 18.9984 0.593751 18.9987H2.07516C2.07605 18.9987 4.75 18.9987 4.75 18.9987C4.75 18.9987 5.03589 19.001 5.21669 18.8199C5.39749 18.6388 18.6521 5.38426 18.6521 5.38426C19.1164 4.92055 19.1164 4.16975 18.6521 3.70544ZM11.0901 3.70989L12.1395 4.75964L2.06328 14.8365L1.01353 13.7867L11.0901 3.70989ZM2.48306 15.2562L12.5593 5.17972L13.8189 6.43936L3.74241 16.5156L2.48306 15.2562ZM0.890922 18.4046C0.726751 18.4046 0.593751 18.2722 0.594047 18.108V17.6381L1.36058 18.4046H0.890922ZM2.20014 18.4049L0.594047 16.7988L0.594344 14.2071L4.79245 18.4052H2.20014V18.4049ZM5.21223 17.9851L4.16249 16.9354L14.239 6.85944L15.2885 7.90889L5.21223 17.9851ZM15.7083 7.48911L11.5101 3.29011L12.3497 2.45055L16.5484 6.64925L15.7083 7.48911ZM18.2323 4.96508L16.9679 6.22947L12.7695 2.03076L14.0336 0.766967C14.2657 0.534811 14.6419 0.534811 14.8734 0.766374L18.2323 4.12522C18.4641 4.35737 18.4638 4.73292 18.2323 4.96508Z" fill="#231F20"/>
</g>
<defs>
<clipPath id="clip0_22_91">
<rect width="19" height="19" fill="white"/>
</clipPath>
</defs>
</svg>
