<svg width="43" height="30" viewBox="0 0 43 30" fill="none" xmlns="http://www.w3.org/2000/svg">
<path d="M25.6757 29.1928C25.1236 28.6547 24.8585 28.0045 24.8806 27.2421C24.9027 26.4798 25.1908 25.8296 25.7448 25.2915L33.5441 17.6906H2.76084C1.97861 17.6906 1.32245 17.4323 0.792369 16.9157C0.262289 16.3991 -0.001831 15.7605 9.55303e-06 15C9.55303e-06 14.2377 0.26505 13.5982 0.795129 13.0816C1.32521 12.565 1.98045 12.3076 2.76084 12.3094H33.5441L25.6757 4.64125C25.1236 4.10314 24.8475 3.46368 24.8475 2.72287C24.8475 1.98206 25.1236 1.3435 25.6757 0.807174C26.2279 0.269057 26.8841 0 27.6442 0C28.4044 0 29.0596 0.269057 29.6099 0.807174L42.2407 13.1166C42.5168 13.3856 42.7128 13.6771 42.8288 13.991C42.9447 14.3049 43.0018 14.6413 43 15C43 15.3587 42.942 15.6951 42.826 16.009C42.7101 16.3229 42.515 16.6143 42.2407 16.8834L29.5409 29.2601C29.0347 29.7534 28.4025 30 27.6442 30C26.8859 30 26.2297 29.7309 25.6757 29.1928Z" fill="white"/>
</svg>
