<svg width="25" height="25" viewBox="0 0 25 25" fill="none" xmlns="http://www.w3.org/2000/svg">
<g clip-path="url(#clip0_22_77)">
<path d="M10.4453 13.3672C11.3801 13.3672 12.294 13.09 13.0712 12.5706C13.8485 12.0513 14.4543 11.3131 14.8121 10.4494C15.1698 9.58574 15.2634 8.63538 15.0811 7.71852C14.8987 6.80166 14.4485 5.95946 13.7875 5.29844C13.1265 4.63742 12.2843 4.18726 11.3674 4.00488C10.4506 3.82251 9.5002 3.91611 8.63654 4.27385C7.77287 4.6316 7.03468 5.23741 6.51532 6.01469C5.99596 6.79197 5.71875 7.7058 5.71875 8.64063C5.72082 9.89356 6.21946 11.0946 7.10541 11.9805C7.99136 12.8665 9.19238 13.3651 10.4453 13.3672ZM10.4453 5.46875C11.0711 5.46875 11.6828 5.65432 12.2032 6.00199C12.7235 6.34966 13.129 6.84382 13.3685 7.42198C13.608 8.00014 13.6707 8.63632 13.5486 9.25009C13.4265 9.86386 13.1251 10.4276 12.6826 10.8701C12.2401 11.3126 11.6764 11.614 11.0626 11.7361C10.4488 11.8582 9.81263 11.7955 9.23448 11.556C8.65632 11.3165 8.16216 10.911 7.81449 10.3907C7.46682 9.87035 7.28125 9.25861 7.28125 8.63281C7.28331 7.79429 7.61733 6.99069 8.21026 6.39776C8.80319 5.80483 9.60678 5.47082 10.4453 5.46875ZM20.0859 22.8828C20.0133 22.8096 19.9269 22.7515 19.8317 22.7118C19.7365 22.6721 19.6344 22.6517 19.5312 22.6517C19.4281 22.6517 19.326 22.6721 19.2308 22.7118C19.1356 22.7515 19.0492 22.8096 18.9766 22.8828C18.9054 22.9571 18.8497 23.0447 18.8125 23.1406C18.7725 23.2346 18.7512 23.3354 18.75 23.4375C18.75 23.6447 18.8323 23.8434 18.9788 23.9899C19.1253 24.1364 19.324 24.2188 19.5312 24.2188C19.7385 24.2188 19.9372 24.1364 20.0837 23.9899C20.2302 23.8434 20.3125 23.6447 20.3125 23.4375C20.3113 23.3354 20.29 23.2346 20.25 23.1406C20.2128 23.0447 20.1571 22.9571 20.0859 22.8828ZM16.4062 22.6563H13.2812C13.074 22.6563 12.8753 22.7386 12.7288 22.8851C12.5823 23.0316 12.5 23.2303 12.5 23.4375C12.5 23.6447 12.5823 23.8434 12.7288 23.9899C12.8753 24.1364 13.074 24.2188 13.2812 24.2188H16.4062C16.6135 24.2188 16.8122 24.1364 16.9587 23.9899C17.1052 23.8434 17.1875 23.6447 17.1875 23.4375C17.1875 23.2303 17.1052 23.0316 16.9587 22.8851C16.8122 22.7386 16.6135 22.6563 16.4062 22.6563Z" fill="#231815"/>
<path d="M18.9688 21.0391H19.0234C19.0651 21.0141 19.1043 20.9854 19.1406 20.9531L19.2344 20.875C19.2706 20.8317 19.3021 20.7845 19.3281 20.7344C19.3874 20.6578 19.4227 20.5654 19.4297 20.4688C19.4339 20.422 19.4339 20.3749 19.4297 20.3281C19.4349 20.2762 19.4349 20.2238 19.4297 20.1719C19.4328 20.1329 19.4328 20.0937 19.4297 20.0547C18.7442 18.2268 17.5194 16.6504 15.9178 15.5342C14.3161 14.4181 12.4131 13.815 10.4609 13.8047C7.90993 13.8309 5.4701 14.8527 3.6618 16.6523C1.8535 18.4518 0.819831 20.8867 0.78125 23.4375C0.78125 23.6447 0.86356 23.8434 1.01007 23.9899C1.15659 24.1365 1.3553 24.2188 1.5625 24.2188H10.1562C10.3635 24.2188 10.5622 24.1365 10.7087 23.9899C10.8552 23.8434 10.9375 23.6447 10.9375 23.4375C10.9375 23.2303 10.8552 23.0316 10.7087 22.8851C10.5622 22.7386 10.3635 22.6563 10.1562 22.6563H2.40625C2.61668 20.6631 3.55159 18.8165 5.0335 17.4671C6.51542 16.1177 8.4412 15.3593 10.4453 15.3359C12.0847 15.3454 13.6825 15.8534 15.0263 16.7925C16.3701 17.7317 17.3964 19.0575 17.9688 20.5938V20.6563C18.0485 20.8111 18.1778 20.9348 18.3359 21.0078H18.375C18.4636 21.047 18.5594 21.0672 18.6562 21.0672C18.7531 21.0672 18.8489 21.047 18.9375 21.0078L18.9688 21.0391ZM13.8125 3.04689C14.0968 2.79185 14.4322 2.60034 14.7963 2.48512C15.1605 2.3699 15.545 2.33361 15.9242 2.37868C16.3035 2.42375 16.6688 2.54914 16.9958 2.74649C17.3228 2.94384 17.6039 3.20863 17.8206 3.52319C18.0372 3.83775 18.1842 4.19487 18.252 4.57074C18.3197 4.94662 18.3066 5.33261 18.2134 5.70301C18.1202 6.0734 17.9492 6.41968 17.7117 6.71876C17.4741 7.01785 17.1756 7.26288 16.8359 7.43751C16.7441 7.48368 16.6623 7.54748 16.5951 7.62527C16.528 7.70307 16.4768 7.79333 16.4445 7.8909C16.4122 7.98847 16.3995 8.09145 16.407 8.19395C16.4145 8.29645 16.4421 8.39647 16.4883 8.48829C16.5344 8.58012 16.5983 8.66195 16.676 8.72911C16.7538 8.79628 16.8441 8.84746 16.9417 8.87975C17.0392 8.91203 17.1422 8.92478 17.2447 8.91726C17.3472 8.90975 17.4472 8.88212 17.5391 8.83595C18.0761 8.55928 18.548 8.17131 18.9232 7.6979C19.2985 7.2245 19.5685 6.67653 19.7153 6.09053C19.8621 5.50454 19.8822 4.89399 19.7745 4.29958C19.6667 3.70518 19.4334 3.14058 19.0902 2.64343C18.747 2.14628 18.3018 1.72801 17.7842 1.4165C17.2666 1.10499 16.6886 0.907397 16.0886 0.8369C15.4886 0.766403 14.8805 0.82462 14.3048 1.00767C13.7291 1.19072 13.1991 1.49439 12.75 1.89845C12.6746 1.96821 12.6137 2.05215 12.5707 2.14546C12.5277 2.23877 12.5036 2.33963 12.4996 2.44228C12.4956 2.54494 12.5118 2.64737 12.5474 2.74374C12.583 2.8401 12.6373 2.92851 12.707 3.00392C12.7768 3.07933 12.8607 3.14025 12.954 3.18322C13.0474 3.22619 13.1482 3.25036 13.2509 3.25435C13.3535 3.25834 13.456 3.24207 13.5523 3.20648C13.6487 3.17088 13.7371 3.11665 13.8125 3.04689ZM16.4844 9.50782C16.2772 9.4871 16.0702 9.54954 15.9091 9.6814C15.7479 9.81327 15.6457 10.0037 15.625 10.2109C15.6043 10.4181 15.6667 10.6251 15.7986 10.7863C15.9304 10.9474 16.1209 11.0496 16.3281 11.0703C17.9188 11.2631 19.3989 11.9836 20.5319 13.1166C21.6649 14.2496 22.3853 15.7297 22.5781 17.3203H20.3125C20.1053 17.3203 19.9066 17.4026 19.7601 17.5491C19.6136 17.6957 19.5312 17.8944 19.5312 18.1016C19.5312 18.3088 19.6136 18.5075 19.7601 18.654C19.9066 18.8005 20.1053 18.8828 20.3125 18.8828H23.4375C23.6447 18.8828 23.8434 18.8005 23.9899 18.654C24.1364 18.5075 24.2188 18.3088 24.2188 18.1016C24.1901 15.975 23.3901 13.9313 21.9674 12.3505C20.5446 10.7697 18.5962 9.75951 16.4844 9.50782Z" fill="#231815"/>
</g>
<defs>
<clipPath id="clip0_22_77">
<rect width="25" height="25" fill="white"/>
</clipPath>
</defs>
</svg>
